# xmcd CD database file
#
# Track frame offsets:
#	150
#	8295
#	21572
#	43535
#	51132
#	69147
#	78995
#	100562
#	105607
#	123115
#
# Disc length: 1971 seconds
#
# Revision: 0
# Processed by: cddbd v1.5.2PL0 Copyright (c) Steve Scherf et al.
# Submitted via: CDex 1.51
#
DISCID=6707b10a
DTITLE=Ronaldo Diamante - Jaix
DYEAR=1997
DGENRE=Jazz
TTITLE0=Mega Barnum
TTITLE1=Jaco No Samba
TTITLE2=Todo Ouvidos
TTITLE3=Baixos
TTITLE4=Sobressalto
TTITLE5=La Faro
TTITLE6=New Age
TTITLE7=Baixos 2
TTITLE8=Diamantes Na Serra Pelada
TTITLE9=Balancim
EXTD=YEAR: 1997
EXTT0=
EXTT1=
EXTT2=
EXTT3=
EXTT4=
EXTT5=
EXTT6=
EXTT7=
EXTT8=
EXTT9=
PLAYORDER=
